<?xml version="1.0" encoding="UTF-8"?><svg id="b" xmlns="http://www.w3.org/2000/svg" width="284.991" height="429.828" viewBox="0 0 284.991 429.828"><g id="c"><g><path d="m142.268,429.781c-44.07,0-88.14,0-132.21-.002-1.496,0-3.019.148-4.484-.075-3.583-.545-5.753-2.526-5.563-6.374.183-3.69,2.192-5.967,5.882-6.124,4.98-.211,9.976-.05,14.965-.055,7.296-.008,7.115-.01,7.094-7.113-.077-27.102-.758-54.231.206-81.299.774-21.72,9.129-41.096,22.213-58.657,13.751-18.456,32.509-31.163,49.738-45.683,3.239-2.73,6.463-5.997,8.357-9.699,4.787-9.357,2.389-16.923-5.993-24.207-14.781-12.846-29.985-25.297-43.856-39.078-21.307-21.17-30.802-47.57-30.673-77.523.079-18.292-.097-36.587.183-54.875.069-4.514-1.35-5.89-5.672-5.562-4.3.327-8.643.128-12.966.086-5.674-.055-8.689-2.394-8.713-6.659C.753,2.434,3.62.076,9.257.075c69.669-.006,139.338.01,209.006.01,18.292,0,36.585-.034,54.877-.053.998-.001,1.997-.052,2.993-.022,4.999.151,8.645,2.795,8.822,6.373.188,3.8-3.555,6.972-8.672,7.106-4.653.122-9.324.218-13.965-.051-4.011-.232-5.265,1.436-5.159,5.252.343,12.285.651,24.576.661,36.865.014,18.432-.256,36.789-5.826,54.723-6.283,20.231-18.869,36.104-33.772,50.307-9.83,9.369-20.563,17.791-30.899,26.629-1.389,1.187-2.808,2.341-4.24,3.476-12.218,9.69-9.123,23.837-.391,31.489,5.488,4.81,11.308,9.265,17.169,13.623,13.405,9.966,25.626,21.205,35.598,34.595,12.218,16.406,20.634,34.794,21.486,55.367,1.12,27.053.805,54.17.889,81.26.032,10.242-.246,10.239,10.377,10.174,3.492-.022,6.994-.189,10.472.025,3.476.213,6.151,1.831,6.302,5.711.156,4.03-2.403,5.963-6.022,6.724-.959.202-1.989.087-2.987.087-44.569.003-89.139.003-133.708.003v.034Zm.777-12.601c0-.038,0-.077,0-.115,32.426,0,64.851-.033,97.276.051,3.262.008,4.924-.709,4.86-4.396-.244-13.95-.225-27.904-.405-41.855-.195-15.117.435-30.321-.962-45.331-2.663-28.612-18.543-50.362-39.121-68.994-10.584-9.583-22.284-17.943-32.748-27.645-14.314-13.271-13.914-32.873.639-46.025,12.933-11.688,26.848-22.322,39.403-34.387,20.853-20.039,32.854-44.384,32.663-73.958-.12-18.623-.107-37.249.055-55.871.035-3.98-1.374-5.118-5.233-5.112-64.529.099-129.058.106-193.587.031-3.859-.004-5.23,1.17-5.181,5.151.216,17.621-.336,35.264.377,52.86.434,10.714,1.63,21.622,4.303,31.973,5.372,20.8,18.511,36.952,34.254,50.949,10.292,9.15,21.186,17.622,31.789,26.423,16.828,13.968,15.608,38.583.652,50.483-17.136,13.634-34.728,26.766-48.986,43.729-12.181,14.492-19.961,31.396-21.157,49.644-1.922,29.312-.902,58.816-1.16,88.239-.028,3.165,1.224,4.24,4.503,4.228,32.589-.116,65.178-.07,97.767-.07Z" fill="#1f5cff"/><path d="m204.17,341.959c0,9.97-.068,19.94.035,29.908.039,3.739-1.345,6.194-4.785,7.883-17.427,8.56-34.72,17.398-52.244,25.751-2.473,1.179-6.457,1.273-8.896.104-17.497-8.388-34.74-17.302-52.15-25.875-3.686-1.815-4.804-4.42-4.799-8.305.028-19.432.013-38.866-.3-58.295-.082-5.103,2.695-7.482,6.56-9.428,14.821-7.46,29.945-14.38,44.363-22.548,7.811-4.425,14.055-3.887,21.596.142,15.07,8.051,30.542,15.352,45.894,22.868,3.195,1.564,4.74,3.752,4.697,7.387-.119,10.135-.041,20.272-.041,30.408.023,0,.046,0,.069,0Zm-67.696,50.81c.192-2.342.433-3.94.437-5.539.033-14.104-.108-28.211.116-42.312.061-3.815-1.554-5.632-4.729-7.138-7.787-3.691-15.433-7.678-23.171-11.473-5.273-2.586-10.607-5.049-15.88-7.55-.541,1.111-.811,1.408-.811,1.705-.026,16.092-.116,32.186.124,48.274.02,1.359,2.02,3.165,3.525,3.951,11.906,6.217,23.91,12.247,35.901,18.302,1.242.627,2.595,1.037,4.49,1.78Zm56.118-74.522c-4.602,2.199-8.75,3.634-12.214,6.05-1.945,1.356-3.607,4.228-3.903,6.602-.591,4.748-.135,9.624-.147,14.447-.014,5.763-1.997,8.568-6.19,8.278-5.3-.366-4.894-4.373-4.832-8.124.07-4.225.016-8.452.016-13.815-5.082,2.519-9.105,4.726-13.304,6.523-2.922,1.251-3.757,3.164-3.733,6.184.114,14.469.036,28.939.072,43.409.004,1.404.321,2.807.538,4.583,1.389-.406,2.353-.543,3.184-.953,12.656-6.24,25.352-12.404,37.863-18.924,1.555-.81,2.944-3.53,2.988-5.399.335-14.464.339-28.935.383-43.405.005-1.553-.398-3.107-.722-5.458Zm-33.184,4.727c-2.942-1.587-4.492-2.497-6.104-3.28-10.129-4.919-20.279-9.792-30.406-14.714-7.281-3.539-16.56-1.782-22.57,4.383.311.355.555.857.951,1.054,12.913,6.401,25.823,12.808,38.793,19.092,1.233.597,3.08.958,4.249.476,4.694-1.935,9.233-4.245,15.087-7.01Zm-31.376-27.623c2.452,1.497,3.501,2.269,4.655,2.822,10.763,5.157,21.524,10.318,32.327,15.391,6.937,3.257,14.561,1.466,20.169-4.628-13.473-6.714-26.909-13.44-40.395-20.064-.909-.446-2.367-.5-3.278-.09-4.164,1.874-8.225,3.979-13.477,6.57Z" fill="#1f5cff"/><path d="m147.02,88.478c-12.134,0-24.268,0-36.402-.002-.831,0-1.668.033-2.492-.052-3.391-.351-5.558-2.652-4.939-5.613.403-1.929,3.03-4.394,5.018-4.78,4.013-.779,8.269-.341,12.425-.341,21.115-.002,42.23.014,63.345.033,1.163.001,2.653-.351,3.422.223,1.805,1.349,4.247,2.995,4.554,4.835.245,1.462-1.971,3.919-3.687,4.952-1.525.918-3.862.62-5.842.627-11.801.045-23.602.022-35.403.022v.096Z" fill="#1f5cff"/><path d="m163.312,126.048c10.457,0,20.915-.033,31.372.018,3.715.018,7.421.773,7.47,5.381.047,4.394-3.228,5.786-7.154,5.798-21.252.069-42.505.109-63.757.187-3.967.015-6.469-1.704-6.507-5.807-.041-4.392,2.89-5.4,6.695-5.375,10.627.07,21.255.024,31.882.024,0-.076,0-.152,0-.228Z" fill="#1f5cff"/><path d="m194.579,112.416c-8.128,0-16.255.011-24.383-.005-3.371-.006-6.677-.507-6.673-4.816.004-4.146,2.861-5.732,6.653-5.746,16.251-.06,32.502-.065,48.754-.094,3.694-.007,6.242,1.572,6.277,5.461.036,3.959-2.484,5.364-6.244,5.321-8.127-.092-16.255-.028-24.383-.028,0-.031,0-.062,0-.093Z" fill="#1f5cff"/><path d="m204.219,64.513c-5.964,0-11.93-.088-17.892.032-3.761.075-6.416-1.528-6.485-5.227-.069-3.673,2.539-5.546,6.254-5.556,12.426-.035,24.852-.123,37.276-.036,3.47.024,6.432,1.585,6.247,5.518-.176,3.727-2.792,5.311-6.518,5.262-6.293-.084-12.588-.023-18.883-.023,0,.01,0,.021,0,.031Z" fill="#1f5cff"/><path d="m130.046,112.464c-4.967,0-9.936-.064-14.902.022-3.446.059-5.317-1.436-5.436-4.927-.116-3.404,1.622-5.537,4.934-5.598,10.757-.199,21.531-.404,32.269.058,1.869.08,4.622,3.13,5.156,5.262.82,3.272-1.915,5.075-5.138,5.154-5.625.138-11.256.038-16.884.029Z" fill="#1f5cff"/><path d="m101.377,64.382c-4.968,0-9.937.035-14.905-.012-3.642-.034-6.264-1.649-6.212-5.529.05-3.691,2.664-5.042,6.09-5.03,9.77.034,19.54.104,29.31.099,5.409-.003,4.026,4.764,5.113,7.635.11.291-3.185,2.596-5.003,2.75-4.767.405-9.592.137-14.393.137,0-.016,0-.033,0-.049Z" fill="#1f5cff"/><path d="m163.859,161.419c-3.642,0-7.285-.008-10.927.002-3.697.01-6.058-2.37-5.577-5.463.312-2.004,3.297-4.945,5.269-5.099,7.568-.591,15.215-.358,22.824-.153,3.198.086,5.28,2.049,5.164,5.447-.112,3.271-1.821,5.222-5.33,5.201-3.808-.022-7.616-.005-11.424-.005,0,.023,0,.046,0,.07Z" fill="#1f5cff"/><path d="m119.779,150.439c3.658,0,7.317-.045,10.974.013,3.292.052,5.499,1.682,5.631,5.042.138,3.496-1.836,5.834-5.371,5.884-7.646.109-15.3-.004-22.943-.269-3.303-.114-5.684-2.433-4.911-5.523.488-1.951,3.143-4.292,5.189-4.718,3.666-.764,7.605-.215,11.43-.215,0-.071,0-.143,0-.214Z" fill="#1f5cff"/><path d="m85.716,28.928c2.12.214,4.915-.166,6.949.903,1.776.933,3.621,3.453,3.712,5.355.08,1.674-2.114,4.843-3.495,4.954-5.029.402-10.199.166-15.182-.649-1.501-.246-3.773-3.352-3.536-4.794.315-1.923,2.433-4.113,4.336-5.054,1.923-.95,4.531-.515,7.215-.715Z" fill="#1f5cff"/><path d="m158.663,64.365c-7.226.165-10.073-1.364-9.628-5.43.654-5.974,5.47-5.162,9.542-5.293,1.985-.064,4.332-.569,5.877.282,2.007,1.106,4.633,3.341,4.667,5.133.032,1.741-2.593,4.052-4.583,5.141-1.531.838-3.887.167-5.876.167Z" fill="#1f5cff"/><path d="m148.081,182.594c.175,7.655-1.911,10.127-7.342,8.186-1.581-.565-3.193-2.718-3.623-4.435-.625-2.496-.169-5.258-.215-7.905-.064-3.694,1.846-5.602,5.417-5.594,3.686.007,5.94,1.743,5.771,5.777-.055,1.322-.009,2.648-.009,3.972Z" fill="#1f5cff"/><path d="m88.559,112.499c-4.451.043-8.464-.056-8.415-5.224.047-4.905,3.811-5.52,7.729-5.515,4.992.007,7.761,2.051,7.515,5.769-.319,4.816-3.725,5.208-6.829,4.97Z" fill="#1f5cff"/><path d="m136.827,213.39c.074-6.033,1.719-7.978,6.013-7.818,4.072.152,5.37,2.306,5.35,8.256-.014,3.963-1.656,5.604-5.731,5.512-4.703-.106-6.157-2.416-5.632-5.95Z" fill="#1f5cff"/><path d="m148.111,259.866c.651,4.302-1.121,6.861-5.525,6.913-4,.047-5.814-1.977-5.754-6.24.059-4.18.708-7.19,5.72-7.304,4.741-.108,6.076,2.465,5.558,6.632Z" fill="#1f5cff"/><path d="m129.148,64.527c-2.667.064-5.68-.166-5.531-4.866.141-4.475,2.453-6.282,6.652-6.063,3.618.189,7.237.792,7.831,5.239.475,3.559-2.884,5.729-8.951,5.691Z" fill="#1f5cff"/><path d="m137.348,236.63c-.731-4.286.696-7.077,5.27-7.018,3.929.051,6.054,2.09,5.718,6.338-.275,3.471.329,7.259-5.029,7.275-4.657.014-6.806-1.952-5.959-6.595Z" fill="#1f5cff"/><path d="m93.313,131.787c-.15,3.848-2.593,5.547-6.457,5.526-3.946-.022-6.121-1.904-6.227-6.059-.11-4.295,2.352-5.312,6.014-5.296,3.807.016,6.501,1.175,6.671,5.829Z" fill="#1f5cff"/><path d="m86.634,77.849c3.947,0,6.634,1.304,6.544,5.323-.096,4.261-2.954,5.366-6.754,5.283-3.58-.078-6.333-1.06-6.164-5.226.17-4.184,2.89-5.581,6.375-5.38Z" fill="#1f5cff"/><path d="m114.522,130.977c-.209,4.306-2.2,6.423-5.955,6.299-3.572-.118-5.99-1.916-5.83-5.86.158-3.894,2.674-5.53,6.226-5.533,3.565-.003,5.307,2.137,5.559,5.093Z" fill="#1f5cff"/><path d="m66.912,34.286c-.027,4.589-1.92,6.513-5.537,6.369-3.507-.139-5.64-2.278-5.603-5.699.041-3.779,2.88-5.619,6.237-5.842,4.055-.27,4.423,3.107,4.903,5.172Z" fill="#1f5cff"/><path d="m105.305,34.217c-.395-2.708-.351-5.486,3.848-5.38,2.971.076,6.751,3.711,6.382,6.427-.508,3.735-3.33,5.247-6.684,5.275-4.178.035-3.868-3.103-3.545-6.323Z" fill="#1f5cff"/></g></g></svg>