<?xml version="1.0" encoding="UTF-8"?><svg id="b" xmlns="http://www.w3.org/2000/svg" width="443.051" height="394.271" viewBox="0 0 443.051 394.271"><g id="c"><g><path d="m221.37,55.754c-68.524,0-137.047.036-205.571-.083-4.467-.008-6.452.711-6.442,5.87.175,84.82.146,169.641.19,254.462.007,12.356,4.423,16.695,16.87,16.697,48.213.009,96.426-.007,144.639-.014.665,0,1.331,0,1.996-.013,3.356-.069,6.938.252,6.778,4.557-.149,4.002-3.452,4.554-6.969,4.555-48.373.003-96.747.07-145.12.154C9.141,341.97.005,332.913.005,314.207.004,218.062.056,121.916,0,25.77-.009,10.427,10.624-.037,25.832,0c130.585.318,261.171.214,391.757.249,16.272.004,25.053,8.666,25.082,24.87.095,53.391.132,106.782.187,160.173.003,2.657.569,5.521-.251,7.9-.585,1.697-2.976,3.631-4.714,3.789-1.322.121-3.369-2.14-4.195-3.791-.743-1.484-.314-3.58-.316-5.406-.04-42.246-.128-84.492-.005-126.737.013-4.283-1.411-5.288-5.431-5.282-68.859.099-137.717.071-206.576.071v-.083Zm211.955-9.353c0-8.619.136-16.564-.04-24.503-.16-7.185-4.241-11.371-11.354-11.969-2.313-.195-4.653-.101-6.981-.101-109.9.012-219.801.03-329.701.04-20.446.002-40.892-.121-61.337-.007-9.447.053-14.213,4.911-14.357,14.06-.063,3.989-.047,7.979-.042,11.969.012,10.561.017,10.48,10.738,10.48,117.126-.006,234.253.016,351.379.03,20.247.002,40.494,0,61.695,0Z" fill="#1f5cff"/><path d="m178.366,147.434c.218,43.339-32.999,77.137-74.967,78.329-42.611,1.21-80.233-34.884-79.693-78.71.513-41.585,35.102-76.751,76.991-77.052,46.654-.335,79.403,39.98,77.669,77.432Zm-76.628-44.597c-23.819-.376-44.543,19.942-44.782,44.768-.194,20.187,15.753,44.514,43.488,44.949,24.668.387,44.6-19.399,45.037-44.805.421-24.456-19.124-44.523-43.742-44.911Zm-50.021-1.313c-23.8,21.737-24.457,72.95-.944,90.52,3.092-2.948,6.25-5.958,9.421-8.981-1.272-1.928-2.207-3.285-3.082-4.681-11.996-19.138-12.702-38.693-1.719-58.428,5.511-9.902,5.754-9.769-2.59-17.726-.231-.221-.543-.357-1.085-.703Zm116.258,42.201c2.548-32.213-30.08-64.103-62.076-63.725,0,4.244-.849,8.773.407,12.614.521,1.593,5.543,1.71,8.514,2.511.48.129.94.33,1.41.495,21.091,7.386,33.822,21.96,38.017,43.988.281,1.476,1.494,3.801,2.504,3.929,3.713.474,7.523.188,11.224.188Zm-12.981,9.063c-1.463,5.558-2.164,10.953-4.268,15.728-7.887,17.899-21.415,29.099-40.812,32.984-1.533.307-3.815,1.787-4,2.99-.539,3.516-.192,7.168-.192,10.733,34.728,1.183,65.344-36.246,62.235-62.436h-12.964Zm-98.052,46.625c11.56,9.612,24.222,15.876,39.642,16.479v-14.156c-11.503-.861-21.077-5.416-30.044-12.546-3.118,3.321-6.045,6.439-9.598,10.224Zm39.801-120.334c-14.91,1.008-26.81,6.86-38.349,15.212,3.423,3.765,6.496,7.144,9.686,10.652,8.173-5.708,16.547-9.828,26.172-10.989.912-.11,2.323-1.507,2.378-2.378.254-4.045.113-8.115.113-12.497Z" fill="#1f5cff"/><path d="m202.547,385.258c7.279,0,14.403.138,21.508-.176.879-.039,2.29-2.448,2.361-3.816.294-5.641,0-11.313.292-16.954.093-1.807.849-4.11,2.136-5.215,2.653-2.277,6.299-.249,6.507,3.631.301,5.632.431,11.298.166,16.928-.196,4.163.759,5.912,5.429,5.787,12.798-.344,25.614-.325,38.415-.087,4.367.081,5.747-1.248,5.702-5.64-.242-24.107-.224-48.217-.269-72.327-.003-1.657.231-3.314.301-4.973.123-2.939,1.508-4.908,4.546-4.738,3.204.18,4.489,2.336,4.444,5.478-.066,4.656.012,9.314.004,13.971-.035,20.956.053,41.914-.222,62.867-.059,4.486,1.281,5.633,5.635,5.523,12.8-.323,25.616-.411,38.414-.112,4.63.108,5.559-1.532,5.48-5.717-.216-11.473-.004-22.953-.017-34.431-.004-3.433.389-6.658,4.787-6.59,4.385.067,4.694,3.391,4.682,6.754-.042,12.141-.077,24.282-.094,36.423-.001.95.159,1.901.294,3.415,4.66,0,9.1-.004,13.541,0,10.144.012,20.299-.234,30.428.164,4.469.176,5.203-1.486,5.192-5.4-.116-40.751-.082-81.503-.087-122.254,0-1.163.11-2.33.052-3.49-.166-3.271,1.951-4.917,4.578-4.446,1.617.29,3.766,2.536,4.073,4.2.654,3.545.278,7.282.298,10.94.141,26.422.346,52.843.38,79.265.015,11.801-.169,23.608-.566,35.402-.153,4.548,1.253,6.232,5.958,5.963,6.632-.38,13.303-.063,19.957-.102,3.051-.018,5.954.308,6.053,4.191.108,4.236-2.941,4.49-6.194,4.489-51.398-.022-102.795-.019-154.193,0-27.279.01-54.557.072-81.836.088-6.677.004-7.82-1.184-7.826-7.815-.046-59.039-.094-118.079-.14-177.118,0-.832.043-1.664.025-2.495-.074-3.455,1.506-5.396,5.06-5.27,3.342.119,4.454,2.071,4.435,5.296-.11,18.292-.108,36.585-.128,54.877-.045,39.914-.086,79.827-.1,119.741,0,1.124.312,2.247.538,3.771Z" fill="#1f5cff"/><path d="m331.832,306.871c-1.328-1.906-2.279-4.325-4.05-5.63-7.619-5.616-15.531-10.833-23.225-16.351-2.932-2.102-5.443-2.559-9.112-1.242-3.519,1.263-7.707.569-11.57,1.004-2.09.236-4.772.382-6.068,1.683-10.185,10.223-20.195,20.626-29.964,31.245-1.12,1.217-.973,4.241-.481,6.192,2.767,10.972-2.517,19.821-13.617,21.904-6.825,1.28-12.463-1.272-16.613-6.66-4.385-5.693-4.496-12.094-1.406-18.321,3.022-6.09,8.675-9.678,15.093-8.349,7.238,1.499,10.797-1.931,14.963-6.513,7.597-8.354,15.631-16.316,23.603-24.321,2.793-2.805,4.164-5.573,2.906-9.701-2.14-7.023.51-12.743,6.014-17.177,5.62-4.528,11.872-5.017,18.213-1.774,6.489,3.319,10.114,8.722,9.344,16.153-.448,4.322,1.346,6.835,4.619,9.058,7.696,5.226,15.269,10.633,22.976,15.843,1.285.869,3.049,1.687,4.493,1.542,4.713-.471,9.418-1.232,14.041-2.263,1.179-.263,2.264-1.795,3.018-2.981,11.395-17.935,22.633-35.971,34.146-53.829,2.595-4.025,3.74-7.251,1.526-12.174-3.966-8.821-.249-17.555,7.956-21.35,8.892-4.113,18.244-1.515,22.567,6.267,6.415,11.55-2.01,26.253-15.219,26.078-4.123-.055-6.393,1.504-8.404,4.748-11.284,18.202-22.697,36.323-34.012,54.505-1.348,2.167-2.854,4.089-.976,7.193,4.074,6.732,2.938,14.44-2.274,20.233-4.781,5.313-12.551,6.925-19.168,3.978-7.064-3.147-11.063-10.139-9.318-18.992Zm74.658-81.186c4.556-.09,7.965-3.739,7.864-8.417-.097-4.488-3.84-7.904-8.518-7.776-4.525.125-8.057,3.88-7.95,8.452.106,4.51,3.802,7.835,8.604,7.74Zm-109.772,43.017c.032-4.896-3.196-8.36-7.81-8.381-4.227-.019-7.527,3.492-7.608,8.096-.075,4.245,3.515,7.84,7.842,7.854,4.029.013,7.55-3.505,7.576-7.569Zm59.097,41.021c.007-4.328-3.191-7.632-7.444-7.69-4.516-.062-8.385,3.702-8.323,8.095.063,4.453,3.541,7.813,7.994,7.723,4.208-.085,7.767-3.807,7.773-8.128Zm-125.022,26.779c4.062.135,7.69-3.358,7.745-7.455.06-4.441-2.892-7.672-7.227-7.91-4.747-.261-8.138,2.716-8.266,7.257-.12,4.276,3.404,7.965,7.747,8.109Z" fill="#1f5cff"/><path d="m101.159,318.153c-20.604,0-41.208.016-61.812-.006-11.112-.012-15.645-4.579-15.621-15.687.036-16.283.066-32.566.158-48.848.048-8.533,4.993-13.74,13.582-13.757,42.365-.086,84.731-.087,127.097.023,9.043.024,14.523,5.693,14.593,14.795.126,16.283.145,32.569,0,48.852-.081,9.118-5.597,14.518-14.692,14.553-21.102.082-42.204.026-63.306.026v.052Zm.162-9.275c0,.086,0,.172,0,.259,20.574,0,41.148-.028,61.722.02,4.959.012,6.486-1.316,6.505-6.429.058-15.617.085-31.234.085-46.851,0-6.146-.697-6.784-6.945-6.763-15.614.051-31.228.149-46.842.155-25.24.009-50.48-.048-75.72-.057-3.391-.001-6.889-.204-6.862,4.865.087,16.442.083,32.885.094,49.327.003,3.88,1.595,5.579,5.759,5.547,20.733-.158,41.469-.072,62.203-.072Z" fill="#1f5cff"/><path d="m245.811,119.692c13.966,0,27.932-.037,41.898.015,7.625.028,11.194,3.705,11.229,11.384.022,4.989.104,9.981-.026,14.967-.177,6.789-3.892,10.512-10.615,10.511-27.937-.001-55.875-.053-83.812-.154-7.69-.028-10.864-3.288-10.936-10.903-.042-4.49,0-8.981-.031-13.472-.066-9.663,2.376-12.235,11.896-12.263,13.466-.039,26.932-.01,40.397-.01,0-.025,0-.051,0-.076Zm43.68,27.493c0-4.569-.227-8.702.062-12.799.304-4.313-1.176-5.707-5.63-5.672-22.589.178-45.182-.146-67.771.031-16.525.129-13.655-3.194-14.022,14.731-.058,2.842,1.021,3.753,3.776,3.747,27.556-.061,55.112-.037,83.585-.037Z" fill="#1f5cff"/><path d="m366.581,119.949c13.969,0,27.939-.054,41.908.021,7.722.042,10.539,2.781,10.757,10.464.16,5.647.253,11.315-.04,16.952-.307,5.896-3.739,9.076-9.68,9.088-28.438.053-56.877.056-85.315-.059-6.946-.028-10.791-4.071-10.884-10.862-.068-4.989-.092-9.981.003-14.969.137-7.173,3.554-10.698,10.845-10.766,14.135-.131,28.271-.038,42.407-.038,0,.057,0,.114,0,.171Zm-.479,27.405c0-.074,0-.147,0-.221,10.622,0,21.245.032,31.867-.008,12.45-.048,12.192-.08,12.428-12.34.096-4.985-1.643-6.141-6.272-6.104-22.735.182-45.473.072-68.21.068-13.396-.003-13.234-.001-13.176,13.353.019,4.23,1.505,5.389,5.531,5.325,12.608-.2,25.221-.074,37.832-.074Z" fill="#1f5cff"/><path d="m245.894,105.928c-13.777,0-27.555.04-41.332-.015-8.058-.032-11.024-3.12-11.009-11.2.008-4.318-.01-8.636.04-12.953.099-8.601,3.188-11.778,11.672-11.791,17.43-.028,34.859.047,52.289.042,9.957-.003,19.915-.145,29.872-.104,7.638.032,11.322,3.711,11.44,11.241.07,4.482.086,8.967.037,13.45-.087,7.967-3.106,11.141-11.181,11.218-13.941.133-27.884.037-41.827.037v.075Zm-.621-9.058v.057c10.301,0,20.601-.006,30.902.001,13.958.01,13.87.017,13.374-14.111-.119-3.399-1.181-4.589-4.706-4.574-25.207.109-50.415.011-75.623.002-7.22-.003-7.22.032-7.165,7.432.016,2.16.227,4.339.011,6.476-.378,3.744,1.124,4.853,4.83,4.795,12.789-.202,25.584-.078,38.377-.078Z" fill="#1f5cff"/><path d="m366.662,105.938c-13.782,0-27.565.064-41.346-.024-8.295-.053-11.808-3.628-11.904-11.831-.054-4.652-.085-9.308.024-13.958.153-6.494,3.361-9.919,9.849-9.955,28.741-.161,57.484-.222,86.226-.202,5.745.004,9.304,3.599,9.471,9.325.159,5.477.083,10.967-.082,16.446-.228,7.577-2.655,9.992-10.385,10.052-13.95.108-27.902.031-41.853.031v.117Zm-.601-9.002c10.629,0,21.259-.003,31.888,0,12.562.004,12.334.004,12.489-12.69.059-4.864-1.459-6.236-6.238-6.183-22.721.255-45.446.163-68.169.216-15.411.036-13.384-2.469-13.576,13.7-.049,4.142,1.49,5.074,5.238,5.027,12.788-.161,25.578-.061,38.368-.072Z" fill="#1f5cff"/><path d="m246.283,179.462c-15.606,0-31.212-.037-46.817.03-3.307.014-6.151-.296-6.08-4.542.067-4.066,3.006-4.142,5.974-4.143,31.537-.006,63.073-.027,94.61-.023,3.032,0,6.526-.122,6.496,4.171-.031,4.46-3.606,4.493-6.862,4.496-15.773.015-31.547.007-47.32.012Z" fill="#1f5cff"/><path d="m347.32,179.456c-9.647,0-19.294-.024-28.941.014-3.154.012-5.898-.757-5.954-4.414-.057-3.801,2.767-4.283,5.902-4.283,18.958-.004,37.917-.086,56.875-.141.333,0,.665.013.998.008,3.195-.046,6.434.356,6.435,4.394,0,3.951-3.089,4.532-6.374,4.516-9.647-.046-19.294-.017-28.942-.017v-.077Z" fill="#1f5cff"/><path d="m31.799,20.553c4.337.006,7.737,3.168,7.842,7.296.108,4.233-2.736,7.153-7.062,7.246-4.95.107-7.929-2.678-7.951-7.434-.02-4.221,2.899-7.115,7.171-7.109Z" fill="#1f5cff"/><path d="m93.553,28.064c.021,4.448-2.881,7.096-7.679,7.008-4.645-.085-7.12-2.735-7.114-7.617.006-4.384,2.218-6.576,6.746-6.685,4.92-.119,8.025,2.696,8.047,7.293Z" fill="#1f5cff"/><path d="m66.327,28.048c-.051,4.243-3.42,7.418-7.717,7.273-4.274-.144-6.91-2.938-6.954-7.371-.045-4.514,2.893-7.283,7.563-7.128,4.389.146,7.16,2.962,7.108,7.226Z" fill="#1f5cff"/><path d="m104.839,178.883h-6.275c.237-.403.474-.805.711-1.207-2.086-1.829-3.962-4.009-6.303-5.411-4.049-2.425-7.524-5.229-7.729-10.217-.068-1.646,1.142-4.26,2.464-4.839,2.152-.942,4.576-.82,5.863,2.559,1.897,4.981,6.993,6.993,11.321,4.62,1.768-.969,3.719-3.319,3.814-5.133.092-1.76-1.689-4.3-3.364-5.315-2.635-1.596-5.863-2.225-8.855-3.22-5.946-1.977-10.349-5.453-10.982-12.111-.673-7.08,1.645-12.639,8.452-15.984,1.47-.722,2.114-2.977,3.397-4.27,1.204-1.215,2.681-2.724,4.17-2.885.924-.1,2.113,2.053,3.148,3.225,1.294,1.465,2.519,2.992,3.834,4.439,2.59,2.849,5.572,5.433,7.64,8.615.704,1.083-.85,3.634-1.373,5.514-2.074-.873-5.062-1.176-6.036-2.736-2.217-3.549-4.883-5.931-8.846-4.564-2.193.757-4.481,3.172-5.343,5.38-1.148,2.939.69,5.437,3.813,6.521,2.663.924,5.432,1.583,8.023,2.671,5.892,2.475,10.873,5.81,11.359,13.085.496,7.426-2.774,12.232-9.538,15.231-1.634.725-2.513,3.153-3.739,4.799.124.41.249.821.373,1.231Z" fill="#1f5cff"/><path d="m84.515,272.273c-10.79,0-21.58-.044-32.37.026-3.417.022-6.027-.795-6.102-4.776-.076-3.995,2.709-4.328,5.783-4.336,21.567-.053,43.133-.15,64.7-.206,1.321-.003,2.876-.18,3.908.427,1.507.886,3.775,2.522,3.665,3.637-.167,1.706-1.799,3.663-3.351,4.711-1.185.8-3.209.447-4.861.451-10.458.029-20.915.015-31.373.015,0,.017,0,.034,0,.051Z" fill="#1f5cff"/><path d="m70.628,295.321c-6.311,0-12.621,0-18.932,0-3.436,0-5.982-1.197-5.863-5.099.111-3.631,2.603-4.649,5.807-4.641,12.623.032,25.245.051,37.868.064,3.244.003,5.75,1.22,5.704,4.753-.044,3.378-2.274,4.886-5.654,4.853-6.309-.06-12.62-.017-18.929-.017v.087Z" fill="#1f5cff"/></g></g></svg>