<?xml version="1.0" encoding="UTF-8"?><svg id="b" xmlns="http://www.w3.org/2000/svg" width="344.067" height="429.155" viewBox="0 0 344.067 429.155"><g id="c"><g><path d="m343.94,145.117c0,23.278.329,46.561-.072,69.831-.735,42.647-12.732,81.886-37.928,116.495-15.157,20.82-34.258,37.904-54.632,53.59-21.831,16.808-45.962,29.65-70.505,41.878-6.246,3.112-11.683,2.889-17.951-.068-40.504-19.108-77.344-43.459-108.326-75.993-28.401-29.823-45.551-65.195-51.699-106.128C-1.531,215.716.556,186.645.165,157.6c-.382-28.436.051-56.882-.155-85.322-.055-7.534.804-8.981,9.228-10.599,11.863-2.279,23.861-3.986,35.585-6.829,20.053-4.862,39.149-12.576,57.667-21.596,21.026-10.242,41.929-20.744,62.738-31.42,4.799-2.462,8.478-2.515,13.331.265,33.615,19.249,68.37,36.182,105.111,48.638,16.492,5.591,33.445,9.634,50.952,10.858,7.783.544,9.249,3.061,9.2,12.733-.118,23.596-.039,47.193-.039,70.79.052,0,.105,0,.157,0Zm-56.258,91.281c7.202,0,14.154-.084,21.102.036,3.371.058,6.522.985,6.554,5.191.034,4.443-3.066,5.414-6.772,5.431-4.657.022-9.313.036-13.969.085-7.837.082-7.711.09-7.536,8.172.073,3.368,1.173,4.809,4.694,4.677,5.814-.218,11.641-.081,17.462-.111,3.46-.018,5.841,1.203,5.956,5.082.123,4.125-2.275,5.569-5.984,5.583-5.985.022-11.974.18-17.952-.016-3.348-.11-4.278,1.185-4.202,4.379.198,8.311.283,16.633.081,24.942-.276,11.333-5.891,19.866-14.872,26.3-1.818,1.302-4.237,2.458-6.364,2.433-1.969-.023-5.001-1.288-5.598-2.789-.722-1.814.301-4.591,1.203-6.677.508-1.174,2.266-1.837,3.508-2.659,6.896-4.563,10.504-10.917,10.519-19.232.088-50.382.278-100.764.189-151.146-.026-14.595-7.86-22.059-22.389-22.07-54.377-.043-108.754-.023-163.131.026-14.552.013-22.579,7.951-22.616,22.509-.127,49.368-.062,98.736-.288,148.103-.047,10.252,3.246,18.118,12.642,22.968,3.269,1.687,5.422,4.291,3.419,8.1-2.071,3.939-5.575,3.761-9.037,2.075-9.399-4.578-15.805-11.844-17.263-22.295-1.05-7.526-.813-15.238-1.049-22.869-.121-3.902-.021-7.812-.021-12.126-7.915,0-15.046-.033-22.177.013-3.893.026-5.918-1.737-5.834-5.703.084-3.951,2.538-4.974,5.988-4.954,5.821.034,11.654.144,17.457-.197,1.551-.091,4.084-1.491,4.309-2.651.606-3.113.207-6.421.207-9.971-7.474,0-14.102-.078-20.727.03-3.938.064-7.107-.734-7.222-5.449-.12-4.879,3.502-4.964,6.93-4.995,6.769-.061,13.538-.018,20.614-.018v-13.141c-12.338,0-24.403-.049-36.467.019-6.681.037-6.942.434-6.119,7.199,5.327,43.767,22.543,82.024,53.172,113.947,28.804,30.021,63.409,51.789,100.397,70.157,3.866,1.92,7.029,1.678,10.722-.144,23.742-11.72,46.464-25.067,67.678-40.985,41.52-31.155,71.578-69.957,81.955-121.969,1.8-9.025,3.033-18.163,4.653-28.009-12.182,0-22.944-.073-33.706.02-11.549.099-11.548.167-10.111,12.702ZM165.728,48.705c-3.591,1.681-6.274,2.869-8.898,4.175-36.349,18.082-73.245,34.773-113.072,43.852-3.758.857-4.158,3.037-4.145,6.122.063,15.302-.053,30.606.111,45.907.049,4.581-1.884,6.978-6.307,7.144-4.628.174-5.308-3.129-5.307-6.746.004-17.964.194-35.929-.054-53.889-.075-5.404,1.954-7.739,7.152-8.652,19.72-3.465,38.697-9.647,56.926-17.732,24.266-10.763,48.19-22.298,72.186-33.662,4.367-2.068,8.07-3.473,13.017-.869,42.106,22.156,85.013,42.401,131.861,52.691,3.999.878,5.648,2.961,5.667,6.833.035,7.151.18,14.302.194,21.454.023,11.31.133,22.625-.179,33.927-.06,2.164-1.397,4.955-3.077,6.189-1.217.894-4.571.383-5.882-.756-1.46-1.269-2.319-3.951-2.345-6.031-.189-15.467-.213-30.938-.033-46.405.044-3.79-1.479-5.387-4.962-6.072-4.721-.929-9.442-1.949-14.063-3.279-32.684-9.404-63.615-23.139-93.994-38.227-4.106-2.039-8.225-4.053-12.24-6.03-.577.827-.919,1.088-.92,1.35-.037,19.952-.092,39.905.064,59.856.009,1.111,1.71,3.076,2.744,3.16,4.385.356,8.816.151,13.766.151,0-8.485-.069-16.272.031-24.056.045-3.548.856-7.014,5.419-6.741,4.207.252,5.271,3.334,5.224,7.087-.079,6.319-.26,12.652.095,18.952.089,1.577,1.874,4.142,3.192,4.359,3.659.603,7.482.209,11.771.209,0-8.087.035-15.54-.015-22.993-.025-3.643.769-6.856,4.946-7.385,3.529-.447,6.171,2.724,6.302,7.358.173,6.15.302,12.313.077,18.457-.14,3.803,1.316,4.929,4.955,4.846,7.97-.183,15.985-.504,23.915.103,13.447,1.029,24.257,10.602,26.405,23.913,1.232,7.632,1.007,15.559.815,23.337-.117,4.755,1.565,6.107,6.038,5.793,4.801-.338,9.643-.147,14.466-.102,6.316.058,8.516,1.479,8.18,5.469-.431,5.111-4.242,5.151-8.087,5.104-4.989-.061-10.02.385-14.957-.128-5.74-.596-5.542,2.738-5.625,6.68-.084,3.975.219,6.703,5.449,6.396,6.119-.359,12.332-.319,18.401.41,1.784.214,4.211,3.231,4.464,5.204.174,1.355-2.669,3.552-4.589,4.573-1.453.773-3.577.334-5.403.342-5.908.026-11.816.01-18.208.01,0,2.896.228,4.729-.043,6.486-.807,5.22,1.466,6.447,6.41,6.281,10.466-.35,20.964-.322,31.428.09,5.149.203,6.477-1.582,6.46-6.504-.148-42.579-.113-85.16.003-127.739.01-3.506-.938-4.793-4.55-5.445-11.578-2.089-23.277-3.97-34.54-7.262-39.883-11.659-77.168-29.485-113.426-49.499-5.139-2.837-9.02-2.977-14.092-.145-27.15,15.159-55.132,28.634-84.17,39.8-20.954,8.057-42.117,15.544-64.828,16.863-3.682.214-3.819,2.365-3.808,5.023.043,10.809.074,21.618.1,32.427.077,32.422.184,64.843.174,97.265-.001,3.647.806,5.304,4.993,5.195,11.303-.296,22.623-.242,33.929.005,3.846.084,5.102-1.353,4.786-4.899-.117-1.32-.147-2.671-.014-3.987.334-3.306-1.137-4.401-4.351-4.264-5.479.232-10.972.197-16.459.202-3.624.003-7.295-.103-7.456-5.131-.165-5.166,3.499-5.283,7.16-5.274,5.488.013,10.981-.046,16.462.179,3.334.137,5.058-.884,4.717-4.464-.141-1.482-.125-2.999.006-4.484.294-3.324-1.281-4.335-4.424-4.252-5.984.159-11.975.076-17.963.03-3.307-.025-5.951-.933-6.036-4.976-.087-4.107,2.176-5.613,5.945-5.598,5.821.022,11.651-.178,17.459.095,3.83.18,4.937-1.433,4.845-4.955-.156-5.983-.208-11.978-.021-17.959.546-17.457,13.571-30.181,31.047-30.409,6.482-.084,12.991-.336,19.443.12,4.698.332,5.684-1.527,5.516-5.703-.24-5.977.031-11.973.076-17.962.029-3.833,1.521-6.58,5.694-6.717,4.301-.141,5.073,2.964,5.164,6.38.133,4.979.156,9.961.294,14.939.248,8.998.274,8.829,9.097,9.084,4.155.12,6.052-.847,5.797-5.497-.344-6.297-.171-12.646.184-18.949.277-4.912,4.09-7.915,7.484-5.817,1.81,1.119,3.21,4.17,3.369,6.449.46,6.622.263,13.294.194,19.945-.029,2.805,1.375,4.246,3.915,3.851,4.161-.647,8.891,2.169,12.469-1.959.174-.201.086-.647.086-.978.003-20.108.003-40.216.003-61.541ZM3.957,68.48v32.145c.617-.008,1.234-.016,1.851-.024-1.55-10.739,2.353-21.526-1.851-32.121Zm332.915,1.681v18.502c4.1-8.088,4.2-13.494,0-18.502ZM5.142,135.955c-.34-.029-.679-.059-1.019-.088v22.813c.34.006.679.011,1.019.017v-22.742Zm331.035,65.288c-.117,2.602-.233,5.205-.363,8.097,5.764-1.481,5.772-1.634.363-8.097Z" fill="#1f5cff"/><path d="m222.27,344.288c-5.083,3.294-8.712,7.476-12.324,7.461-3.479-.014-6.94-4.366-10.546-6.908-.077.021-.554.002-.678.202-5.17,8.334-13.367,8.141-21.568,7.456-6.184-.517-10.437.927-14.4,6.61-8.084,11.594-26.236,16.914-39.84,13.087-16.264-4.575-28.084-17.924-29.897-33.765-2.138-18.679,5.687-33.108,22.558-41.593,13.89-6.986,32.207-4.12,44.044,6.899.729.679,1.699,1.277,2.079,2.126,3.333,7.46,9.584,7.382,16.483,7.241,17.444-.356,34.9-.152,52.351-.111,6.08.014,20.077,10.774,21.124,16.733.363,2.066-.759,4.939-2.162,6.662-3.554,4.364-7.559,8.379-11.555,12.36-5.042,5.023-7.999,4.86-12.893-.55-1.216-1.344-2.119-2.972-2.778-3.913Zm20.176-11.997c-4.896-7.438-9.713-11.315-18.399-10.924-18.734.844-37.53.265-56.298.483-3.754.043-6.232-1.064-8.152-4.323-1.586-2.693-3.47-5.351-5.733-7.482-12.911-12.162-33.717-10.599-45.218,3.237-11.572,13.921-9.408,33.521,4.925,44.601,14.356,11.099,34.671,8.13,44.449-7.287,3.47-5.471,7.097-7.698,13.176-6.671,1.129.191,2.331-.095,3.482.022,8.134.824,15.313-.222,20.247-8.012,2.129-3.362,5.603-3.093,8.604-.365,2.174,1.976,4.348,3.951,6.74,6.125,2.191-1.972,4.153-3.73,6.104-5.497,3.372-3.054,6.553-3.559,9.793.33,1.561,1.874,3.549,3.392,5.451,5.171,1.168-.936,2.086-1.612,2.937-2.363,2.6-2.294,5.175-4.616,7.891-7.044Z" fill="#1f5cff"/><path d="m193.669,163.894c-2.63,8.986-4.872,16.619-7.097,24.257-6.589,22.613-13.206,45.217-19.728,67.849-1.285,4.458-2.044,9.067-3.314,13.53-1.453,5.106-4.692,7.19-8.671,5.957-4.027-1.248-5.66-4.65-4.208-9.64,8.765-30.113,17.621-60.199,26.414-90.304,1.254-4.295,2.168-8.693,3.53-12.951,1.146-3.582,4.215-5.176,7.471-3.875,2.328.931,3.966,3.588,5.603,5.176Z" fill="#1f5cff"/><path d="m239.662,216.658c-7.507-6.955-14.435-13.355-21.341-19.779-3.16-2.939-6.384-5.819-9.387-8.911-3.704-3.814-3.906-7.084-.924-9.916,2.907-2.76,6.307-2.406,10.085,1.156,6.885,6.492,13.721,13.034,20.599,19.534,4.343,4.104,8.827,8.063,13.058,12.278,4.508,4.491,4.328,6.892-.178,11.215-10.649,10.215-21.199,20.533-31.941,30.649-1.832,1.725-4.467,3.755-6.633,3.649-2.262-.111-5.526-2.21-6.282-4.219-.73-1.942.418-5.651,2.05-7.247,9.247-9.048,18.884-17.698,28.399-26.471.607-.56,1.306-1.019,2.496-1.937Z" fill="#1f5cff"/><path d="m103.737,216.608c9.817,9.162,19.018,17.75,28.221,26.336.848.791,1.802,1.49,2.547,2.368,2.538,2.988,3.284,6.437.542,9.425-2.838,3.093-6.415,2.471-9.337-.151-4.565-4.096-8.896-8.452-13.346-12.678-7.097-6.741-14.27-13.404-21.295-20.22-4.387-4.256-4.301-6.662.086-10.789,11.228-10.562,22.502-21.076,33.722-31.646,2.707-2.55,5.557-4.423,9.304-2.339,3.97,2.207,4.136,6.906.401,10.407-8.954,8.393-17.957,16.733-26.913,25.123-1.295,1.213-2.445,2.582-3.931,4.166Z" fill="#1f5cff"/><path d="m171.874,398.667c-1.047-.314-2.051-.481-2.934-.903-6.281-3-12.577-5.975-18.786-9.12-3.501-1.773-4.619-4.772-2.961-8.356,1.735-3.75,4.775-3.577,7.981-2.027,4.332,2.094,8.526,4.543,13.01,6.223,2.03.761,5.026.821,6.882-.147,9.552-4.982,18.878-10.396,28.278-15.67,1.445-.811,2.815-1.769,4.302-2.49,3.26-1.579,6.673-2.03,8.861,1.424,2.235,3.527.432,6.494-2.784,8.312-12.985,7.337-26.052,14.53-39.106,21.746-.849.469-1.84.683-2.743,1.008Z" fill="#1f5cff"/><path d="m122.335,346.664c-8.093-.021-13.792-5.462-13.816-13.192-.023-7.46,6.104-13.706,13.537-13.801,7.589-.096,13.616,6.277,13.484,14.258-.118,7.098-5.982,12.754-13.205,12.735Zm7.06-13.505c-3.36-2.524-5.565-5.41-7.252-5.134-2.055.336-4.806,3.115-5.214,5.23-.592,3.07,1.711,6.133,5.262,5.474,2.146-.398,3.901-2.903,7.204-5.571Z" fill="#1f5cff"/></g></g></svg>