<?xml version="1.0" encoding="UTF-8"?><svg id="b" xmlns="http://www.w3.org/2000/svg" width="433.233" height="430.116" viewBox="0 0 433.233 430.116"><g id="c"><g><path d="m263.261,174.701c.931,1.765,1.443,2.954,2.139,4.022,18.868,28.948,37.808,57.85,56.57,86.866,2.314,3.579,4.139,5.359,9.015,4.119,12.046-3.062,22.848,1.858,29.058,12.102,4.488,7.403,5.517,21.536-3.323,29.978-2.47,2.358-1.828,4.617-.207,7.113,18.01,27.724,35.99,55.467,53.964,83.214,3.792,5.853,7.524,11.745,11.291,17.615,2.113,3.293,2.879,6.48-.973,9.073-3.416,2.3-7.018,1.568-9.409-2.127-21.124-32.642-42.424-65.174-63.044-98.131-3.425-5.475-6.414-7.505-12.72-7.295-11.099.369-18.966-5.32-23.077-15.644-1.324-3.325-3.082-4.536-6.65-4.421-13.621.44-27.25.696-40.878.801-3.478.027-4.691,1.234-4.629,4.67.165,9.147-.098,18.303.146,27.446.195,7.289-3.298,12.348-9.515,14.98-23.891,10.115-48.122,10.159-72.275.956-7.975-3.039-12.139-8.756-11.904-18.061.495-19.618.316-39.258.091-58.885-.085-7.376,2.949-13.141,9.27-15.715,8.341-3.397,17.226-5.701,26.076-7.503,4.753-.968,6.864-2.179,6.751-7.411-.31-14.298-.167-28.609.003-42.913.039-3.299-.777-5.063-4.178-6.133-7.326-2.305-12.62-7.192-15.741-14.285-1.118-2.54-1.597-5.537-5.475-5.416-4.049.126-7.712.206-10.347,4.339-8.843,13.87-18.042,27.512-27.023,41.295-14.515,22.275-28.976,44.586-43.442,66.893-21.241,32.753-42.495,65.497-63.684,98.283-8.563,13.25-16.954,26.612-25.471,39.892-.978,1.526-2.026,3.675-3.46,4.091-2.41.698-5.94,1.236-7.542-.019-1.592-1.247-2.449-5.149-1.736-7.241,1.254-3.68,3.883-6.912,6.053-10.257,32.725-50.454,65.477-100.891,98.205-151.343,15.19-23.415,30.321-46.868,45.534-70.268,3.119-4.797,6.483-9.434,10.11-14.689-1.959-.549-2.845-1.012-3.732-1.014-14.968-.025-29.937.101-44.904-.033-4.168-.037-6.631,1.247-8.253,5.354-4.351,11.016-13.321,16.236-24.61,16.139-11.159-.096-19.712-5.794-23.97-16.434-1.578-3.943-3.633-5.264-7.746-5.128-12.295.406-24.602.458-36.904.647-.998.015-1.998.073-2.993.024-4.714-.231-7.944-2.916-7.713-6.741.281-4.643,3.48-6.067,7.582-6.067,12.805.002,25.614-.112,38.414.159,5.111.108,8.018-1.254,10.983-6.078,3.009-4.896,8.604-8.41,13.558-11.814,2.339-1.607,3.529-2.756,3.507-5.678-.119-15.802-.126-31.607.079-47.408.049-3.74-1.181-5.63-4.708-6.977-12.643-4.829-18.501-14.552-17.372-28.12.897-10.772,10.91-20.927,22.925-23.247,11.02-2.128,22.752,3.494,27.928,14.616,2.429,5.22,5.427,6.347,10.63,6.228,13.8-.316,27.613-.176,41.419-.022,3.725.042,5.021-.923,5.3-5.011.409-5.993,1.073-11.721.097-17.883-1.04-6.572-.108-13.571.722-20.29.702-5.682,5.728-9.758,11.518-9.785,27.279-.128,54.559-.179,81.838-.023,6.882.039,12.266,5.22,13.078,12.109.991,8.405,2,16.868-1.387,25.078-.342.83-.16,1.923-.064,2.879.663,6.564,2.968,13.452,1.707,19.614-2.237,10.935.911,21.415.44,32.119-.564,12.805-5.088,17.634-17.941,17.623-8.817-.008-17.635.136-26.449-.031-3.507-.066-4.672,1.282-4.607,4.668.153,7.98-.174,15.978.24,23.94.1,1.93,1.946,4.856,3.633,5.428,7.496,2.544,12.464,7.478,15.472,14.527,1.249,2.927,3.151,3.755,6.175,3.747,28.77-.071,57.541-.016,86.312-.019,5.229,0,7.742-3.829,6.414-8.939-.748-2.877-2.024-6.956-.7-8.761,3.038-4.141,7.372-7.421,11.539-10.577.935-.708,3.47.228,5.044.917,5.486,2.404,11.911.32,13.816-5.306,1.569-4.635,4.506-6.307,8.967-6.158,5.548.185,11.561-.92,14.725,5.68,3.262,6.805,7.502,8.254,14.664,5.268.613-.256,1.233-.713,1.848-.71,6.95.031,9.484,6.145,13.217,10.257,1.389,1.531,1.453,5.395.602,7.611-2.3,5.987-.668,10.648,5.394,12.077,4.588,1.081,6.976,3.441,6.602,8.335-.177,2.314-.116,4.661.025,6.982.338,5.546-1.533,9.123-7.469,10.472-4.76,1.081-7.385,8.209-4.835,12.376,2.155,3.522,1.724,6.585-.751,9.583-1.267,1.535-2.634,2.989-3.969,4.467-3.616,4.005-7.695,5.262-12.948,3.006-5.498-2.361-10.053-.125-12.125,5.569-1.289,3.544-3.499,5.503-7.403,5.401-2.825-.074-5.657-.038-8.481.065-4.455.162-7.107-1.911-8.511-6.118-1.582-4.738-7.339-7.041-12.066-5.071-6.11,2.547-8.116,2.043-13.421-3.37-5.896-6.015-6.617-8.593-4.014-14.341,1.999-4.413-.329-10.102-5.076-11.424-5.495-1.53-8.197-4.64-7.493-10.471.42-3.479-.933-5.164-4.76-5.116-16.959.212-33.92.204-50.88.348-1.731.015-3.458.508-5.733.865Zm-116.584-13.04c0,.014,0,.029,0,.043,12.131,0,24.263-.059,36.394.042,2.972.025,4.817-.749,6.214-3.693,3.39-7.143,8.469-12.555,16.502-14.83,1.411-.4,3.084-2.929,3.145-4.532.311-8.132-.01-16.286.185-24.425.087-3.65-1.08-4.98-4.838-4.886-9.636.24-19.281.198-28.921.12-7.119-.058-14.362-4.771-14.848-10.883-.662-8.326-1.975-16.867,1.57-25.059,1.886-4.359-2.092-10.763-6.724-10.744-15.122.063-30.242.4-45.364.485-3.029.017-4.401,1.245-5.231,4.07-2.453,8.348-7.741,14.263-16.113,16.931-3.075.98-4.263,2.59-4.242,5.704.11,16.116.03,32.235.308,48.348.027,1.557,1.751,3.963,3.211,4.471,7.565,2.631,12.884,7.513,15.898,14.795,1.292,3.122,3.232,4.125,6.459,4.092,12.131-.123,24.263-.049,36.395-.049Zm138.015,130.816c0-.298,0-.596.001-.894,6.979,0,13.958-.042,20.936.021,2.798.025,4.655-.632,5.356-3.841.516-2.363,2.376-4.421,2.967-6.783.454-1.815.509-4.268-.377-5.784-3.009-5.148-6.586-9.959-9.818-14.982-17.779-27.634-35.468-55.326-53.401-82.86-1.082-1.662-4.013-2.924-6.066-2.901-1.715.019-4.18,1.827-4.972,3.483-3.292,6.885-7.827,12.631-15.054,15.126-4.441,1.533-5.394,4.056-5.393,8.062.006,14.286,0,28.573-.249,42.856-.067,3.851,1.443,4.857,5.047,5.627,9.006,1.923,17.954,4.269,26.734,7.048,6.816,2.158,9.557,7.892,9.937,14.65.308,5.467.305,10.969.095,16.442-.141,3.674,1.017,5.002,4.84,4.817,6.458-.312,12.943-.086,19.416-.086Zm124.012-82.845c3.15-.163,5.024-3.793,2.977-6.502-2.484-3.285-2.408-6.181-.349-9.553,1.097-1.797,1.736-3.926,2.306-5.981,1.076-3.877,3.316-6.028,7.383-7.028,1.508-.371,3.216-3.138,3.331-4.91.087-1.339-1.996-3.703-3.497-4.08-3.299-.828-5.171-2.476-6.223-5.613-.839-2.499-2.543-4.773-3.024-7.306-.485-2.553-.569-5.547.34-7.896.899-2.32,2.268-4.553-.12-6.048-1.589-.995-4.118-.643-6.222-.619-2.665.03-5.44.898-7.96.385-3.013-.613-6.04-1.947-8.623-3.639-2.138-1.4-3.613-3.797-5.43-5.706-1.217-1.278-2.597-3.54-3.763-3.454-1.679.124-4.218,1.691-4.648,3.155-1.194,4.063-3.573,6.028-7.543,6.803-1.75.342-3.551,1.079-5.018,2.088-3.589,2.467-6.865,3.244-10.753.323-.95-.714-3.942.016-4.984,1.075-.958.974-1.342,3.819-.605,4.912,2.304,3.414,2.015,6.321-.076,9.584-1.146,1.789-2.228,3.808-2.608,5.859-.7,3.784-2.493,5.874-6.445,6.167-2.571.19-4.186,1.366-4.092,4.444.089,2.888.711,4.749,4.006,5.042,3.871.344,6.119,2.601,7.057,6.432.503,2.055,1.439,4.047,2.443,5.926,1.599,2.992,1.966,5.786-.246,8.659-1.415,1.838-2.032,3.619.25,5.553,1.976,1.674,3.56,2.782,6,.751,2.718-2.263,5.587-2.112,8.69-.28,2.527,1.492,5.33,2.629,8.143,3.493,2.807.862,4.513,2.117,4.909,5.299.329,2.646,1.546,5.71,4.964,4.678,1.804-.545,3.137-2.915,4.487-4.616,1.249-1.574,2.037-4.619,3.376-4.832,6.824-1.089,12.882-8.779,20.602-2.702.223.175.64.103.967.139ZM213.781,66.473v.062c12.95,0,25.901-.083,38.85.046,4.402.044,6.46-1.573,6.219-6.149-.218-4.141-.043-8.302-.04-12.455.002-3.465-1.647-5.166-5.193-5.161-26.397.035-52.794.045-79.19.019-3.517-.003-5.277,1.772-5.427,5.097-.172,3.811-.21,7.637-.097,11.45.177,5.956,1.158,7.014,7.02,7.06,12.619.099,25.239.03,37.859.03Zm.545,9.661c0,.132,0,.264,0,.396-13.109,0-26.22.101-39.327-.059-4.171-.051-5.684,1.757-5.592,5.665.09,3.809-.119,7.627.008,11.434.19,5.7,1.397,6.851,7.229,6.982,4.313.097,8.63-.003,12.945.004,20.756.034,41.511.112,62.267.089,5.864-.006,6.851-1.118,6.962-7.068.071-3.818-.032-7.641.11-11.456.166-4.46-1.727-6.147-6.282-6.066-12.77.228-25.546.079-38.32.079Zm-.408-42.971c0,.048,0,.096,0,.144,12.955,0,25.91-.086,38.863.05,4.131.044,6.241-1.302,6.044-5.718-.177-3.978-.095-7.976.04-11.959.149-4.413-1.934-6.424-6.262-6.428-7.47-.006-14.941-.096-22.411-.1-18.098-.009-36.196.068-54.294-.019-4.301-.021-6.611,1.539-6.539,6.062.066,4.139.023,8.282-.039,12.422-.064,4.29,2.051,5.676,6.222,5.615,12.789-.188,25.583-.068,38.376-.068Zm-.838,248.609c10.758-1.244,21.214-1.986,30.929-6.38,2.624-1.187,4.559-3.895,6.811-5.904-2.179-2.004-4.021-4.848-6.591-5.878-20.095-8.052-40.414-8.298-60.606-.36-2.638,1.037-4.604,3.783-6.881,5.738,2.278,2.207,4.514,4.46,6.863,6.589.574.52,1.494.753,2.296.911,9.055,1.785,18.118,3.529,27.179,5.284Zm37.364,1.161c-24.613,8.679-48.898,9.164-73.121-.243-2.199,11.064-1.238,12.837,9.179,16.362,18.063,6.112,36.616,6.021,54.846.174,9.612-3.083,10.718-5.606,9.097-16.294Zm-73.384,21.436c-1.634,11.542-1.001,13.4,8.315,16.482,18.873,6.245,37.968,6.06,56.806-.116,9.403-3.083,10.279-5.543,7.979-16.273-11.495,5.68-23.817,7.205-36.312,7.257-12.54.052-24.801-1.915-36.788-7.351Zm73.196,23.29c-24.558,8.589-48.707,8.722-72.735-.426-2.781,9.429-1.685,12.621,6.77,15.626,18.915,6.723,38.143,6.959,57.181.669,9.764-3.226,10.671-5.609,8.784-15.868ZM78.883,42.678c-8.237-.19-15.936,6.979-16.213,15.096-.324,9.499,7.154,17.773,16.258,17.988,8.38.198,15.998-7.535,16.122-16.365.13-9.264-6.871-16.505-16.166-16.719Zm274.035,252.999c.335-9.652-5.904-16.001-16.004-16.286-8.841-.249-16.148,6.667-16.51,15.626-.345,8.55,6.595,16.103,15.151,16.491,9.594.434,17.033-6.349,17.363-15.831Zm-139.179-143.455c-9.16.062-16.268,7.312-16.275,16.599-.006,8.097,7.859,15.679,16.318,15.732,8.114.051,15.922-7.857,15.902-16.104-.023-9.27-6.92-16.289-15.946-16.228Zm-118.25,16.535c-.018-9.305-6.83-16.193-16.001-16.179-8.717.013-15.686,7.44-15.644,16.673.038,8.298,7.401,15.458,15.826,15.39,8.897-.072,15.836-7.039,15.819-15.883Z" fill="#1f5cff"/><path d="m335.732,43.408c-1.004-23.534,18.804-41.528,38.556-43.238,23.364-2.023,44.409,14.187,47.694,36.677,1.945,13.315-1.866,25.576-9.481,36.242-9.159,12.828-19.311,24.945-28.982,37.41-2.76,3.557-5.864,4.116-8.57.463-11.645-15.724-23.551-31.29-34.338-47.592-3.63-5.486-4.224-12.981-6.206-19.558.442-.134.884-.269,1.326-.403Zm42.965,56.23c10.341-14.448,20.918-26.761,28.643-40.659,9.163-16.486,2.607-30.842-8.169-40.353-10.216-9.017-28.743-9.469-38.925-1.674-12.547,9.605-17.994,26.669-10.346,40.403,7.989,14.348,18.453,27.317,28.798,42.282Z" fill="#1f5cff"/><path d="m378.918,203.382c-17.543.461-27.244-14.221-27.056-25.78.273-16.774,9.841-27.32,26.672-27.653,15.61-.308,27.582,11.488,27.633,26.584.051,15.172-11.769,26.818-27.248,26.849Zm.015-9.631c9.854.1,17.731-7.409,17.753-16.924.024-10.281-7.318-18.139-17.118-18.32-9.818-.181-18.255,8.093-18.241,17.889.013,9.438,7.944,17.256,17.605,17.354Z" fill="#1f5cff"/><path d="m183.73,60.467c-2.659-2.519-5.532-3.95-5.744-5.704-.477-3.938,2.942-4.602,6.117-4.596,2.927.005,6.505.508,6.006,4.077-.282,2.02-3.568,3.621-6.379,6.223Z" fill="#1f5cff"/><path d="m245.311,59.996c-2.386-2.268-3.911-3.718-5.436-5.167,1.774-1.307,3.465-3.465,5.348-3.647,1.469-.142,3.175,2.172,4.776,3.394-1.332,1.54-2.664,3.08-4.689,5.42Z" fill="#1f5cff"/><path d="m183.963,94.323c-2.758-2.493-5.739-3.887-6.073-5.755-.724-4.052,2.778-4.627,5.918-4.482,3.034.14,7.21-.168,6.63,4.326-.246,1.906-3.6,3.411-6.475,5.911Z" fill="#1f5cff"/><path d="m244.768,93.998c-2.186-2.617-3.592-4.302-4.998-5.986,1.893-1.192,3.765-3.249,5.685-3.295,1.464-.035,2.988,2.481,4.486,3.862-1.424,1.491-2.847,2.983-5.172,5.418Z" fill="#1f5cff"/><path d="m182.505,26.113c-1.688-1.743-4.577-3.344-4.803-5.26-.409-3.46,2.856-4.581,5.863-4.452,2.888.124,6.731.032,6.853,4.08.132,4.361-3.71,4.34-7.913,5.632Z" fill="#1f5cff"/><path d="m245.253,26.275c-2.464-2.459-4.037-4.028-5.61-5.598,1.725-1.191,3.437-3.289,5.178-3.313,1.679-.024,3.387,2.094,5.083,3.271-1.283,1.555-2.565,3.111-4.651,5.64Z" fill="#1f5cff"/></g></g></svg>