<?xml version="1.0" encoding="UTF-8"?><svg id="b" xmlns="http://www.w3.org/2000/svg" width="430.43" height="430.64" viewBox="0 0 430.43 430.64"><g id="c"><g><path d="m134.184,381.59c8.264,0,15.724-.005,23.183.001,10.644.008,21.288,0,31.932.055,2.599.013,4.396-.539,6.221-2.946,3.024-3.987,6.713-7.615,10.666-10.695,2.093-1.631,3.153-2.952,3.133-5.552-.062-8.149-.103-16.305.169-24.448.127-3.792-1.303-4.828-4.919-4.802-20.459.147-40.92.125-61.38.106-13.038-.012-20.732-7.742-20.734-20.703,0-6.321.139-12.647-.051-18.963-.15-4.953.448-9.507,3.494-13.694.771-1.06.649-3.683-.155-4.809-2.781-3.897-3.509-8.067-3.347-12.71.22-6.314-.358-12.679.214-18.949.392-4.293,2.2-8.451,3.295-12.69.375-1.451,1.261-3.556.633-4.355-4.524-5.751-4.185-12.362-4.109-19.04.051-4.454,1.26-10.152-.975-12.985-1.852-2.348-7.987-1.279-12.216-1.797-14.25-1.745-25.69-8.71-34.841-19.445-26.052-30.566-15.42-74.38,21.63-90.089,1.538-.652,3.19-2.808,3.437-4.465,3.18-21.271,14.386-35.598,35.318-41.84,8.662-2.583,17.137-1.752,25.336,1.559,4.019,1.623,6.1.669,8.367-2.95,27.65-44.148,93.042-47.966,127.137-5.913,9.492,11.708,15.322,25.213,16.833,40.333.297,2.97,1.079,4.183,4.279,4.663,16.134,2.422,30.093,8.968,40.439,22.148,29.282,37.304,8.013,85.383-33.198,95.554-3.829.945-7.899,1.057-11.871,1.225-2.589.11-3.54,1.067-3.426,3.618.17,3.82-.011,7.656.182,11.473.308,6.098-.237,11.848-4.047,17.055-.795,1.086-.051,3.526.387,5.239,1.082,4.236,3.055,8.349,3.463,12.627.598,6.263-.018,12.632.189,18.947.158,4.812-.657,9.145-3.465,13.205-.748,1.082-.31,3.227.044,4.779.976,4.284,2.831,8.462,3.174,12.774.553,6.943.232,13.961.17,20.947-.1,11.309-7.813,19.171-19.136,19.221-20.957.092-41.917.126-62.872-.119-4.869-.057-6.326,1.455-6.057,6.278.417,7.462.25,14.969.041,22.448-.095,3.391,1.154,5.15,3.978,7.156,3.779,2.684,6.582,6.714,9.95,10.018,1.147,1.125,2.729,2.556,4.123,2.567,19.624.161,39.25.043,58.874.151,3.21.018,3.824-1.635,4.18-4.227,1.537-11.196,6.627-15.892,18.1-16.281,8.46-.287,16.936-.081,25.404-.167,2.434-.025,4.866-.301,7.691-.488,0-5.004.246-9.488-.142-13.917-.124-1.42-1.777-2.848-2.987-4.002-3.202-3.053-7.396-5.422-9.665-9.026-6.017-9.557-2.43-21.642,7.42-27.494,10.228-6.077,22.922-2.85,29.047,7.384,5.767,9.636,2.782,21.712-6.835,27.919-1.883,1.215-4.853,2.455-5.152,4.083-.799,4.344-.681,8.93-.279,13.361.079.873,3.057,2.091,4.71,2.11,8.533.099,17.079.078,25.602-.314,12.337-.567,21.458,7.833,20.351,19.611-.108,1.149.265,2.361.06,3.479-.7,3.832.841,5.97,4.261,7.868,7.197,3.994,11.272,10.329,10.972,18.739-.282,7.905-4.211,13.836-11.164,17.661-9.535,5.246-21.965,1.907-27.468-7.332-6.031-10.128-3.523-21.672,5.952-28.072,2.081-1.405,5.138-3.113,5.443-5.045.683-4.326.091-8.901-.416-13.325-.092-.802-2.243-1.929-3.461-1.952-10.476-.2-20.956-.145-31.435-.251-2.539-.026-3.687.941-3.479,3.536.132,1.654.232,3.344.045,4.984-.635,5.552.943,9.241,6.302,12.337,7.715,4.457,10.535,14.427,7.901,22.742-2.926,9.238-10.379,14.609-20.233,14.584-9.196-.024-17.003-5.782-19.747-14.565-2.52-8.065.897-17.865,8-23.002,2.108-1.524,5.595-2.799,5.991-4.7.931-4.47.525-9.257.27-13.895-.039-.718-2.13-1.88-3.284-1.894-10.644-.131-21.291-.02-31.937-.062-2.718-.011-3.991,1.128-3.967,3.852.028,3.16.09,6.328-.099,9.478-.169,2.815.777,4.349,3.455,5.733,14.065,7.27,16.021,23.812,4.247,34.24-7.309,6.473-18.222,6.916-25.645,1.042-8.701-6.885-11.209-17.039-6.418-26.147.977-1.857,2.102-3.637,3.569-6.157-2.274-.416-3.811-.937-5.35-.943-15.469-.057-30.938.054-46.406-.087-3.634-.033-5.82,1.145-7.366,4.521-3.701,8.082-10.903,11.172-19.093,11.159-7.754-.013-14.186-3.665-17.663-10.97-1.786-3.752-4.289-4.801-8.266-4.745-15.799.222-31.602.131-47.403.161-6.292.012-6.752.186-6.739,6.264.02,8.919-4.839,14.514-11.908,18.764-11.329,6.811-23.781,10.207-36.83,11.163-21.469,1.573-42.876,1.676-63.424-6.218-3.85-1.479-7.607-3.338-11.143-5.463C4.278,413.63-.066,407.762.006,399.154c.111-13.301.051-26.603-.005-39.905-.054-12.765,7.543-19.562,18.429-23.809,15.702-6.127,32.061-8.318,48.826-8.226,15.403.085,30.528,1.965,44.985,7.426,5.064,1.913,9.919,4.609,14.485,7.546,5.043,3.244,7.562,8.186,7.484,14.378-.103,8.11-.025,16.223-.025,25.027Zm25.153-209.578v-.036c6.153,0,12.309-.113,18.458.048,3.021.079,4.183-1.073,4.155-4.046-.065-6.812-.013-13.627.094-20.439.052-3.308-1.245-4.93-4.718-4.794-3.652.143-7.379.433-10.95-.126-2.337-.365-5.405-1.615-6.375-3.42-.786-1.463.421-4.925,1.847-6.508,15.567-17.287,31.281-34.444,47.117-51.486,5.042-5.426,6.964-5.358,12.201.226,14.437,15.389,28.721,30.92,43.041,46.419,1.803,1.952,3.615,3.93,5.146,6.093,3.003,4.241,1.043,8.399-4.175,8.745-3.807.252-7.647.176-11.466.045-3.54-.121-5.124,1.142-4.98,4.931.24,6.31.283,12.645-.004,18.95-.191,4.194,1.378,5.5,5.456,5.428,10.972-.194,21.95.009,32.925-.063,7.049-.047,12.781,2.622,17.874,7.417,1.579,1.487,4.22,2.568,6.388,2.59,15.94.164,28.224-6.819,37.851-19.391,21.778-28.441,3.491-63.715-18.33-72.419-7.739-3.087-15.484-4.723-23.696-4.756-4.516-.018-6.648-2.171-6.479-6.808.102-2.804-.226-5.633-.487-8.44-3.307-35.568-36.391-63.22-75.777-57.883-23.518,3.187-40.078,16.381-50.933,37.186-3.251,6.231-4.746,6.579-10.813,2.788-8.239-5.149-17.159-6.305-26.303-3.577-15.426,4.602-24.295,15.518-24.622,31.316-.187,9.06-4.161,11.512-11.474,13.98-19.801,6.681-31.695,28.232-27.594,48.522,4.994,24.707,20.817,38.497,46.271,39.99,1.905.112,4.46-1.138,5.783-2.597,4.655-5.133,10.311-7.715,17.11-7.86,5.818-.125,11.64-.026,17.461-.026Zm55.651,99.949c0,.014,0,.029,0,.043,11.613,0,23.226.021,34.839-.006,12.79-.03,25.58-.059,38.369-.176,7.101-.065,8.927-1.92,8.966-8.791.041-7.148.001-14.297.07-21.445.045-4.697-2.492-7.024-6.867-7.594-1.967-.257-3.981-.211-5.973-.21-36.716.02-73.432.066-110.148.079-10.634.004-21.27-.194-31.902-.076-6.177.068-8.344,2.435-8.388,8.573-.049,6.815.007,13.631.032,20.446.028,7.621,1.365,9.114,8.903,9.134,24.033.063,48.066.023,72.099.023Zm.742,49.684v-.048c24.268,0,48.535.026,72.803-.019,5.933-.011,8.455-2.557,8.539-8.487.101-7.147-.05-14.3.145-21.444.125-4.595-2.223-6.729-6.396-7.315-1.8-.253-3.646-.231-5.472-.236-32.739-.098-65.477-.231-98.216-.245-15.119-.006-30.239.152-45.357.386-5.833.09-7.633,2.114-7.697,7.995-.077,7.148-.11,14.296-.089,21.445.014,5.04,2.127,7.42,6.945,7.877,1.649.156,3.322.088,4.983.088,23.271.004,46.542.003,69.813.003Zm-.059-138.04c0,.007,0,.015,0,.022-24.432,0-48.864-.019-73.296.013-6.444.008-8.353,1.883-8.463,8.242-.112,6.472-.112,12.946-.135,19.419-.031,8.925,1.304,10.32,10.448,10.346,15.952.045,31.904-.042,47.856-.037,31.731.01,63.463.064,95.194.054,7.608-.002,9.736-2.185,9.833-9.802.076-5.983.164-11.967.104-17.949-.084-8.43-1.963-10.295-10.247-10.301-23.765-.019-47.53-.007-71.295-.007Zm-36.489-52.635c2.199.373,3.561.748,4.937.814,7.311.353,8.874,1.937,8.921,9.411.055,8.642.12,17.285.043,25.927-.032,3.579,1.323,5.008,5.047,4.904,7.976-.222,15.963-.064,23.946-.063,4.925,0,9.849,0,14.995,0,.105-1.986.223-3.277.234-4.568.079-9.145-.103-18.3.286-27.431.259-6.072,2.606-7.873,8.464-7.962,1.676-.025,3.35-.263,5.455-.439-.625-1.38-.76-2.087-1.175-2.534-10.753-11.562-21.54-23.092-32.31-34.638-2.641-2.831-4.57-1.303-6.585.886-9.68,10.517-19.418,20.982-29.105,31.493-.968,1.05-1.73,2.289-3.152,4.2Zm-115.39,206.664c-5.021.445-12.957.376-20.519,2.02-9.004,1.957-17.897,4.871-26.442,8.346-6.335,2.577-6.346,6.834-.497,10.507,3.468,2.178,7.352,3.879,11.26,5.141,14.409,4.654,29.326,5.272,44.318,5.003,14.346-.258,28.612-1.299,41.78-7.602,3.33-1.594,7.913-4.615,8.274-7.446.576-4.516-4.88-5.978-8.634-7.554-14.95-6.276-30.734-8.05-49.54-8.415Zm-51.232,31.688c-2.585,8.022-1.27,11.446,5.529,14.877,13.482,6.804,27.973,9.223,42.876,9.808,18.441.725,36.507-.953,53.656-8.458,8.182-3.581,9.562-6.617,7.021-15.69-36.419,13.671-72.821,14.17-109.082-.538Zm-.265,25.37c-2.491,6.891-1.454,10.553,4.939,14.091,4.032,2.231,8.273,4.358,12.684,5.585,22.442,6.247,45.196,6.904,67.849,1.658,7.752-1.795,15.121-5.517,22.416-8.896,3.256-1.508,4.604-7.904,2.709-10.639-2.477-3.576-5.068-.387-7.358.471-25.077,9.393-50.799,10.403-76.795,5.44-8.968-1.712-17.619-5.087-26.444-7.711Zm202.796,2.997c5.698.09,10.057-4.104,10.225-9.837.157-5.343-4.483-10.095-9.989-10.23-5.498-.135-10.316,4.494-10.289,9.883.028,5.473,4.593,10.098,10.053,10.184Zm133.497-74.042c-.019,5.871,4.169,10.307,9.769,10.346,5.552.038,9.734-4.077,9.825-9.668.098-5.979-4.271-10.607-10.067-10.664-5.243-.052-9.509,4.42-9.527,9.987Zm70.428,86.173c.141-5.477-4.079-9.927-9.537-10.054-5.096-.119-9.713,4.557-9.796,9.921-.081,5.175,3.991,9.169,9.588,9.405,5.051.213,9.612-4.126,9.745-9.271Zm-50.871-.357c-.087-5.775-4.089-9.62-9.854-9.469-5.061.132-9.561,4.612-9.613,9.572-.057,5.358,4.523,9.912,9.824,9.767,5.645-.154,9.728-4.333,9.644-9.869Zm-50.424-.215c-.135-4.817-4.979-9.807-9.536-9.824-5.261-.02-10.007,5.049-9.818,10.485.182,5.221,4.485,9.381,9.679,9.357,5.178-.024,9.82-4.831,9.675-10.017Z" fill="#1f5cff"/><path d="m256.574,247.553c6.625,0,13.249.022,19.874-.009,3.357-.016,5.416,1.366,5.459,4.923.043,3.513-1.664,5.93-5.227,5.967-13.913.144-27.836.262-41.736-.19-1.874-.061-4.76-3.185-5.201-5.302-.697-3.348,1.907-5.439,5.479-5.468,7.117-.059,14.235-.017,21.353-.017,0,.032,0,.064,0,.097Z" fill="#1f5cff"/><path d="m163.224,252.943c-.037,4.214-2.6,6.739-6.854,6.75-4.137.011-7.418-3.032-7.511-6.966-.094-3.98,3.11-6.825,7.551-6.704,4.057.11,6.85,2.947,6.815,6.92Z" fill="#1f5cff"/><path d="m255.895,308.49c-6.474,0-12.947-.018-19.421.007-3.893.015-6.62-1.731-6.791-5.679-.182-4.195,2.892-5.821,6.583-5.82,13.255.002,26.51.195,39.765.291,3.602.026,5.732,1.738,5.753,5.365.022,3.824-2.163,5.755-5.97,5.768-6.639.023-13.279.006-19.919.006,0,.021,0,.041,0,.062Z" fill="#1f5cff"/><path d="m156.366,309.294c-4.874-.079-7.248-2.35-7.192-6.878.049-3.941,3.055-6.756,7.065-6.616,4.104.143,7.111,3.326,7.015,7.426-.091,3.889-2.643,6.137-6.889,6.068Z" fill="#1f5cff"/><path d="m256.329,208.497c-6.462,0-12.926.075-19.386-.025-4.823-.074-7.578-2.357-7.617-6.006-.04-3.724,2.442-5.693,7.656-5.726,12.76-.081,25.521-.019,38.28-.094,3.834-.023,6.58,1.31,6.971,5.391.37,3.863-2.454,6.389-7.014,6.445-6.296.077-12.593.019-18.89.015Z" fill="#1f5cff"/><path d="m156.51,209.538c-4.435.069-7.796-2.908-7.966-7.056-.163-3.978,2.998-7.085,7.221-7.097,4.333-.012,7.632,3.185,7.62,7.385-.011,4.063-2.693,6.703-6.874,6.768Z" fill="#1f5cff"/></g></g></svg>