<svg xmlns="http://www.w3.org/2000/svg" viewBox="0 0 512 512">
  <rect fill="#bf0a30" width="512" height="512"/>
  <rect fill="#fff" y="39.4" width="512" height="39.4"/>
  <rect fill="#fff" y="118.2" width="512" height="39.4"/>
  <rect fill="#fff" y="197" width="512" height="39.4"/>
  <rect fill="#fff" y="275.8" width="512" height="39.4"/>
  <rect fill="#fff" y="354.6" width="512" height="39.4"/>
  <rect fill="#fff" y="433.4" width="512" height="39.4"/>
  <rect fill="#002868" width="256" height="275.8"/>
  <g fill="#fff">
    <polygon points="24,17.2 26.5,24.7 34.5,24.7 28,29.3 30.5,36.8 24,32.2 17.5,36.8 20,29.3 13.5,24.7 21.5,24.7"/>
    <polygon points="64,17.2 66.5,24.7 74.5,24.7 68,29.3 70.5,36.8 64,32.2 57.5,36.8 60,29.3 53.5,24.7 61.5,24.7"/>
    <polygon points="104,17.2 106.5,24.7 114.5,24.7 108,29.3 110.5,36.8 104,32.2 97.5,36.8 100,29.3 93.5,24.7 101.5,24.7"/>
    <polygon points="144,17.2 146.5,24.7 154.5,24.7 148,29.3 150.5,36.8 144,32.2 137.5,36.8 140,29.3 133.5,24.7 141.5,24.7"/>
    <polygon points="184,17.2 186.5,24.7 194.5,24.7 188,29.3 190.5,36.8 184,32.2 177.5,36.8 180,29.3 173.5,24.7 181.5,24.7"/>
    <polygon points="224,17.2 226.5,24.7 234.5,24.7 228,29.3 230.5,36.8 224,32.2 217.5,36.8 220,29.3 213.5,24.7 221.5,24.7"/>
    <polygon points="44,36.8 46.5,44.3 54.5,44.3 48,48.9 50.5,56.4 44,51.8 37.5,56.4 40,48.9 33.5,44.3 41.5,44.3"/>
    <polygon points="84,36.8 86.5,44.3 94.5,44.3 88,48.9 90.5,56.4 84,51.8 77.5,56.4 80,48.9 73.5,44.3 81.5,44.3"/>
    <polygon points="124,36.8 126.5,44.3 134.5,44.3 128,48.9 130.5,56.4 124,51.8 117.5,56.4 120,48.9 113.5,44.3 121.5,44.3"/>
    <polygon points="164,36.8 166.5,44.3 174.5,44.3 168,48.9 170.5,56.4 164,51.8 157.5,56.4 160,48.9 153.5,44.3 161.5,44.3"/>
    <polygon points="204,36.8 206.5,44.3 214.5,44.3 208,48.9 210.5,56.4 204,51.8 197.5,56.4 200,48.9 193.5,44.3 201.5,44.3"/>
    <polygon points="24,56.4 26.5,63.9 34.5,63.9 28,68.5 30.5,76 24,71.4 17.5,76 20,68.5 13.5,63.9 21.5,63.9"/>
    <polygon points="64,56.4 66.5,63.9 74.5,63.9 68,68.5 70.5,76 64,71.4 57.5,76 60,68.5 53.5,63.9 61.5,63.9"/>
    <polygon points="104,56.4 106.5,63.9 114.5,63.9 108,68.5 110.5,76 104,71.4 97.5,76 100,68.5 93.5,63.9 101.5,63.9"/>
    <polygon points="144,56.4 146.5,63.9 154.5,63.9 148,68.5 150.5,76 144,71.4 137.5,76 140,68.5 133.5,63.9 141.5,63.9"/>
    <polygon points="184,56.4 186.5,63.9 194.5,63.9 188,68.5 190.5,76 184,71.4 177.5,76 180,68.5 173.5,63.9 181.5,63.9"/>
    <polygon points="224,56.4 226.5,63.9 234.5,63.9 228,68.5 230.5,76 224,71.4 217.5,76 220,68.5 213.5,63.9 221.5,63.9"/>
    <polygon points="44,76 46.5,83.5 54.5,83.5 48,88.1 50.5,95.6 44,91 37.5,95.6 40,88.1 33.5,83.5 41.5,83.5"/>
    <polygon points="84,76 86.5,83.5 94.5,83.5 88,88.1 90.5,95.6 84,91 77.5,95.6 80,88.1 73.5,83.5 81.5,83.5"/>
    <polygon points="124,76 126.5,83.5 134.5,83.5 128,88.1 130.5,95.6 124,91 117.5,95.6 120,88.1 113.5,83.5 121.5,83.5"/>
    <polygon points="164,76 166.5,83.5 174.5,83.5 168,88.1 170.5,95.6 164,91 157.5,95.6 160,88.1 153.5,83.5 161.5,83.5"/>
    <polygon points="204,76 206.5,83.5 214.5,83.5 208,88.1 210.5,95.6 204,91 197.5,95.6 200,88.1 193.5,83.5 201.5,83.5"/>
    <polygon points="24,95.6 26.5,103.1 34.5,103.1 28,107.7 30.5,115.2 24,110.6 17.5,115.2 20,107.7 13.5,103.1 21.5,103.1"/>
    <polygon points="64,95.6 66.5,103.1 74.5,103.1 68,107.7 70.5,115.2 64,110.6 57.5,115.2 60,107.7 53.5,103.1 61.5,103.1"/>
    <polygon points="104,95.6 106.5,103.1 114.5,103.1 108,107.7 110.5,115.2 104,110.6 97.5,115.2 100,107.7 93.5,103.1 101.5,103.1"/>
    <polygon points="144,95.6 146.5,103.1 154.5,103.1 148,107.7 150.5,115.2 144,110.6 137.5,115.2 140,107.7 133.5,103.1 141.5,103.1"/>
    <polygon points="184,95.6 186.5,103.1 194.5,103.1 188,107.7 190.5,115.2 184,110.6 177.5,115.2 180,107.7 173.5,103.1 181.5,103.1"/>
    <polygon points="224,95.6 226.5,103.1 234.5,103.1 228,107.7 230.5,115.2 224,110.6 217.5,115.2 220,107.7 213.5,103.1 221.5,103.1"/>
    <polygon points="44,115.2 46.5,122.7 54.5,122.7 48,127.3 50.5,134.8 44,130.2 37.5,134.8 40,127.3 33.5,122.7 41.5,122.7"/>
    <polygon points="84,115.2 86.5,122.7 94.5,122.7 88,127.3 90.5,134.8 84,130.2 77.5,134.8 80,127.3 73.5,122.7 81.5,122.7"/>
    <polygon points="124,115.2 126.5,122.7 134.5,122.7 128,127.3 130.5,134.8 124,130.2 117.5,134.8 120,127.3 113.5,122.7 121.5,122.7"/>
    <polygon points="164,115.2 166.5,122.7 174.5,122.7 168,127.3 170.5,134.8 164,130.2 157.5,134.8 160,127.3 153.5,122.7 161.5,122.7"/>
    <polygon points="204,115.2 206.5,122.7 214.5,122.7 208,127.3 210.5,134.8 204,130.2 197.5,134.8 200,127.3 193.5,122.7 201.5,122.7"/>
    <polygon points="24,134.8 26.5,142.3 34.5,142.3 28,146.9 30.5,154.4 24,149.8 17.5,154.4 20,146.9 13.5,142.3 21.5,142.3"/>
    <polygon points="64,134.8 66.5,142.3 74.5,142.3 68,146.9 70.5,154.4 64,149.8 57.5,154.4 60,146.9 53.5,142.3 61.5,142.3"/>
    <polygon points="104,134.8 106.5,142.3 114.5,142.3 108,146.9 110.5,154.4 104,149.8 97.5,154.4 100,146.9 93.5,142.3 101.5,142.3"/>
    <polygon points="144,134.8 146.5,142.3 154.5,142.3 148,146.9 150.5,154.4 144,149.8 137.5,154.4 140,146.9 133.5,142.3 141.5,142.3"/>
    <polygon points="184,134.8 186.5,142.3 194.5,142.3 188,146.9 190.5,154.4 184,149.8 177.5,154.4 180,146.9 173.5,142.3 181.5,142.3"/>
    <polygon points="224,134.8 226.5,142.3 234.5,142.3 228,146.9 230.5,154.4 224,149.8 217.5,154.4 220,146.9 213.5,142.3 221.5,142.3"/>
    <polygon points="44,154.4 46.5,161.9 54.5,161.9 48,166.5 50.5,174 44,169.4 37.5,174 40,166.5 33.5,161.9 41.5,161.9"/>
    <polygon points="84,154.4 86.5,161.9 94.5,161.9 88,166.5 90.5,174 84,169.4 77.5,174 80,166.5 73.5,161.9 81.5,161.9"/>
    <polygon points="124,154.4 126.5,161.9 134.5,161.9 128,166.5 130.5,174 124,169.4 117.5,174 120,166.5 113.5,161.9 121.5,161.9"/>
    <polygon points="164,154.4 166.5,161.9 174.5,161.9 168,166.5 170.5,174 164,169.4 157.5,174 160,166.5 153.5,161.9 161.5,161.9"/>
    <polygon points="204,154.4 206.5,161.9 214.5,161.9 208,166.5 210.5,174 204,169.4 197.5,174 200,166.5 193.5,161.9 201.5,161.9"/>
    <polygon points="24,174 26.5,181.5 34.5,181.5 28,186.1 30.5,193.6 24,189 17.5,193.6 20,186.1 13.5,181.5 21.5,181.5"/>
    <polygon points="64,174 66.5,181.5 74.5,181.5 68,186.1 70.5,193.6 64,189 57.5,193.6 60,186.1 53.5,181.5 61.5,181.5"/>
    <polygon points="104,174 106.5,181.5 114.5,181.5 108,186.1 110.5,193.6 104,189 97.5,193.6 100,186.1 93.5,181.5 101.5,181.5"/>
    <polygon points="144,174 146.5,181.5 154.5,181.5 148,186.1 150.5,193.6 144,189 137.5,193.6 140,186.1 133.5,181.5 141.5,181.5"/>
    <polygon points="184,174 186.5,181.5 194.5,181.5 188,186.1 190.5,193.6 184,189 177.5,193.6 180,186.1 173.5,181.5 181.5,181.5"/>
    <polygon points="224,174 226.5,181.5 234.5,181.5 228,186.1 230.5,193.6 224,189 217.5,193.6 220,186.1 213.5,181.5 221.5,181.5"/>
    <polygon points="44,193.6 46.5,201.1 54.5,201.1 48,205.7 50.5,213.2 44,208.6 37.5,213.2 40,205.7 33.5,201.1 41.5,201.1"/>
    <polygon points="84,193.6 86.5,201.1 94.5,201.1 88,205.7 90.5,213.2 84,208.6 77.5,213.2 80,205.7 73.5,201.1 81.5,201.1"/>
    <polygon points="124,193.6 126.5,201.1 134.5,201.1 128,205.7 130.5,213.2 124,208.6 117.5,213.2 120,205.7 113.5,201.1 121.5,201.1"/>
    <polygon points="164,193.6 166.5,201.1 174.5,201.1 168,205.7 170.5,213.2 164,208.6 157.5,213.2 160,205.7 153.5,201.1 161.5,201.1"/>
    <polygon points="204,193.6 206.5,201.1 214.5,201.1 208,205.7 210.5,213.2 204,208.6 197.5,213.2 200,205.7 193.5,201.1 201.5,201.1"/>
    <polygon points="24,213.2 26.5,220.7 34.5,220.7 28,225.3 30.5,232.8 24,228.2 17.5,232.8 20,225.3 13.5,220.7 21.5,220.7"/>
    <polygon points="64,213.2 66.5,220.7 74.5,220.7 68,225.3 70.5,232.8 64,228.2 57.5,232.8 60,225.3 53.5,220.7 61.5,220.7"/>
    <polygon points="104,213.2 106.5,220.7 114.5,220.7 108,225.3 110.5,232.8 104,228.2 97.5,232.8 100,225.3 93.5,220.7 101.5,220.7"/>
    <polygon points="144,213.2 146.5,220.7 154.5,220.7 148,225.3 150.5,232.8 144,228.2 137.5,232.8 140,225.3 133.5,220.7 141.5,220.7"/>
    <polygon points="184,213.2 186.5,220.7 194.5,220.7 188,225.3 190.5,232.8 184,228.2 177.5,232.8 180,225.3 173.5,220.7 181.5,220.7"/>
    <polygon points="224,213.2 226.5,220.7 234.5,220.7 228,225.3 230.5,232.8 224,228.2 217.5,232.8 220,225.3 213.5,220.7 221.5,220.7"/>
    <polygon points="44,232.8 46.5,240.3 54.5,240.3 48,244.9 50.5,252.4 44,247.8 37.5,252.4 40,244.9 33.5,240.3 41.5,240.3"/>
    <polygon points="84,232.8 86.5,240.3 94.5,240.3 88,244.9 90.5,252.4 84,247.8 77.5,252.4 80,244.9 73.5,240.3 81.5,240.3"/>
    <polygon points="124,232.8 126.5,240.3 134.5,240.3 128,244.9 130.5,252.4 124,247.8 117.5,252.4 120,244.9 113.5,240.3 121.5,240.3"/>
    <polygon points="164,232.8 166.5,240.3 174.5,240.3 168,244.9 170.5,252.4 164,247.8 157.5,252.4 160,244.9 153.5,240.3 161.5,240.3"/>
    <polygon points="204,232.8 206.5,240.3 214.5,240.3 208,244.9 210.5,252.4 204,247.8 197.5,252.4 200,244.9 193.5,240.3 201.5,240.3"/>
  </g>
</svg>
